<svg width="70" height="70" viewBox="0 0 70 70" fill="none" xmlns="http://www.w3.org/2000/svg">
<path d="M65.5078 30.411H15.3295L37.2516 7.89953C39.0036 6.10045 39.0036 3.14812 37.2516 1.34905C36.836 0.921404 36.3424 0.582128 35.7989 0.350641C35.2555 0.119153 34.6729 0 34.0846 0C33.4962 0 32.9137 0.119153 32.3702 0.350641C31.8268 0.582128 31.3331 0.921404 30.9176 1.34905L1.31373 31.7488C0.897282 32.1756 0.566889 32.6825 0.341462 33.2405C0.116035 33.7986 0 34.3968 0 35.001C0 35.6051 0.116035 36.2034 0.341462 36.7614C0.566889 37.3195 0.897282 37.8264 1.31373 38.2532L30.9176 68.6529C31.3335 69.08 31.8272 69.4188 32.3706 69.6499C32.914 69.881 33.4964 70 34.0846 70C34.6728 70 35.2552 69.881 35.7986 69.6499C36.342 69.4188 36.8357 69.08 37.2516 68.6529C37.6675 68.2258 37.9974 67.7188 38.2225 67.1608C38.4476 66.6028 38.5634 66.0047 38.5634 65.4007C38.5634 64.7967 38.4476 64.1987 38.2225 63.6407C37.9974 63.0827 37.6675 62.5756 37.2516 62.1486L15.3295 39.6371H65.5078C67.9785 39.6371 70 37.5612 70 35.024C70 32.4869 67.9785 30.411 65.5078 30.411Z" fill="#888888"/>
</svg>
