<svg width="12" height="13" viewBox="0 0 12 13" fill="none" xmlns="http://www.w3.org/2000/svg">
<path d="M11.8978 12.1373L9.2844 9.34966C10.1893 8.24877 10.6568 6.8167 10.5881 5.35586C10.5193 3.89502 9.91986 2.51978 8.91618 1.52057C7.9125 0.521358 6.58321 -0.0235986 5.20903 0.000784311C3.83486 0.0251672 2.52338 0.616981 1.55156 1.65124C0.579733 2.68551 0.0236478 4.08125 0.000736961 5.54372C-0.0221739 7.00618 0.489883 8.42088 1.42877 9.48904C2.36766 10.5572 3.65987 11.1952 5.03252 11.2683C6.40516 11.3415 7.75078 10.844 8.7852 9.88092L11.4045 12.6623C11.4699 12.7319 11.5587 12.771 11.6512 12.771C11.7437 12.771 11.8324 12.7319 11.8978 12.6623C11.9632 12.5926 12 12.4982 12 12.3998C12 12.3013 11.9632 12.2069 11.8978 12.1373ZM0.727608 5.64953C0.727608 4.68531 0.996271 3.74275 1.49962 2.94103C2.00297 2.13931 2.7184 1.51445 3.55544 1.14546C4.39248 0.776468 5.31354 0.679923 6.20214 0.868033C7.09073 1.05614 7.90696 1.52046 8.5476 2.20226C9.18825 2.88407 9.62453 3.75274 9.80128 4.69843C9.97804 5.64412 9.88732 6.62435 9.54061 7.51517C9.1939 8.40599 8.60676 9.16739 7.85344 9.70308C7.10012 10.2388 6.21446 10.5247 5.30846 10.5247C4.09402 10.523 2.92976 10.0089 2.07102 9.09497C1.21229 8.18105 0.729162 6.94199 0.727608 5.64953Z" fill="#CCCCCC"/>
</svg>
