<?xml version="1.0" encoding="utf-8"?>
<!-- Generator: Adobe Illustrator 26.0.1, SVG Export Plug-In . SVG Version: 6.00 Build 0)  -->
<svg version="1.1" id="Laag_1" xmlns="http://www.w3.org/2000/svg" xmlns:xlink="http://www.w3.org/1999/xlink" x="0px" y="0px"
	 viewBox="0 0 68 68" style="enable-background:new 0 0 68 68;" xml:space="preserve">
<style type="text/css">
	.st0{fill:none;}
	.st1{fill:#D21D6A;}
	.st2{fill:#912B86;}
	.st3{fill:#50328A;}
	.st4{fill:#176DB5;}
	.st5{fill:#FECC33;}
	.st6{fill:#EC6226;}
	.st7{fill:#E62A2C;}
	.st8{fill:#E71F79;}
	.st9{fill:#AFCB37;}
	.st10{fill:#14A24A;}
	.st11{fill:#17A59A;}
	.st12{fill:#1AB0E5;}
</style>
<g>
	<polygon class="st0" points="34,34 34,34 35.8,30.89 	"/>
	<polygon class="st0" points="34,34 34,34 39.45,30.86 34,34 34,34 	"/>
	<polygon class="st0" points="34,34 34,34 34,34 34,34 17,63.44 17,63.44 34,34 	"/>
	<rect x="34" y="34" transform="matrix(0.7071 -0.7071 0.7071 0.7071 -14.0831 34.0001)" class="st0" width="0" height="0"/>
	<polygon class="st0" points="34,34 34,34 34,34 	"/>
	<polygon class="st0" points="19,25.34 34,34 34,34 34,34 	"/>
	<polygon class="st0" points="34,34 42.68,49.03 34,34 34,34 	"/>
	<path class="st1" d="M34,34L17,4.56C11.84,7.54,7.54,11.84,4.56,17L19,25.34L34,34z"/>
	<polygon class="st1" points="34,34 34,34 34,34 	"/>
	<path class="st2" d="M34,34L34,34V0h0c-6.19,0-12,1.66-17,4.56L34,34L34,34z"/>
	<path class="st3" d="M34,34L34,34L34,34L34,34l1.8-3.11L51,4.56C46,1.66,40.19,0,34,0V34z"/>
	<path class="st4" d="M34,34l5.45-3.14L63.44,17C60.46,11.84,56.16,7.54,51,4.56L35.8,30.89L34,34z"/>
	<path class="st5" d="M17,63.44C22,66.34,27.81,68,34,68h0V34L17,63.44z"/>
	<rect x="34" y="34" class="st5" width="0" height="0"/>
	<rect x="34" y="34" class="st5" width="0" height="0"/>
	<path class="st6" d="M34,34L34,34L34,34L34,34L34,34L34,34L34,34L34,34L4.56,51c2.99,5.16,7.28,9.46,12.44,12.44L34,34L34,34z"/>
	<path class="st7" d="M0,34c0,6.19,1.66,12,4.56,17L34,34H0z"/>
	<path class="st8" d="M34,34L34,34l-15-8.66L4.56,17C1.66,22,0,27.81,0,34H34z"/>
	<path class="st9" d="M34,34L34,34L34,34L34,34l0,34c6.19,0,12-1.66,17-4.56l-8.32-14.41L34,34z"/>
	<path class="st10" d="M34,34l8.68,15.03L51,63.44c5.16-2.99,9.46-7.28,12.44-12.44L34,34z"/>
	<polygon class="st10" points="34,34 34,34 34,34 34,34 34,34 	"/>
	<path class="st11" d="M34,34L34,34L34,34L34,34L34,34l29.44,17C66.34,46,68,40.19,68,34H34z"/>
	<path class="st12" d="M34,34L34,34L34,34L34,34L34,34L34,34l34,0c0-6.19-1.66-12-4.56-17L39.45,30.86L34,34z"/>
</g>
</svg>
